<svg id="svg" version="1.1" xmlns="http://www.w3.org/2000/svg" xmlns:xlink="http://www.w3.org/1999/xlink" width="400" height="400" viewBox="0, 0, 400,400"><g id="svgg"><path id="path0" d="M192.542 45.300 C 188.452 51.515,182.922 59.925,180.253 63.988 C 177.584 68.051,173.060 74.934,170.200 79.284 C 167.340 83.633,161.400 92.686,157.000 99.401 C 152.600 106.116,145.940 116.259,142.200 121.942 C 138.460 127.625,134.116 134.238,132.546 136.637 C 130.976 139.037,127.212 144.780,124.180 149.400 C 121.148 154.020,116.424 161.220,113.682 165.400 C 110.940 169.580,107.344 175.029,105.691 177.509 C 104.038 179.990,102.779 182.112,102.893 182.226 C 103.007 182.341,105.598 181.363,108.650 180.054 C 111.703 178.745,119.330 175.516,125.600 172.878 C 155.194 160.428,161.133 157.925,174.200 152.401 C 181.900 149.146,190.985 145.314,194.389 143.886 L 200.579 141.289 202.589 142.192 C 207.215 144.269,231.808 155.251,242.054 159.815 C 248.134 162.523,253.894 165.094,254.854 165.529 C 255.814 165.965,260.740 168.169,265.800 170.429 C 270.860 172.688,279.500 176.548,285.000 179.006 C 290.500 181.463,295.069 183.419,295.153 183.351 C 295.303 183.230,287.352 170.408,281.789 161.800 C 280.225 159.380,276.454 153.440,273.408 148.600 C 270.363 143.760,265.683 136.380,263.010 132.200 C 260.336 128.020,255.310 120.100,251.840 114.600 C 248.370 109.100,241.451 98.164,236.465 90.299 C 231.479 82.433,223.449 69.743,218.620 62.099 C 213.791 54.454,208.738 46.490,207.391 44.400 C 206.044 42.310,203.992 39.115,202.832 37.300 C 201.672 35.485,200.555 34.000,200.350 34.000 C 200.145 34.000,196.632 39.085,192.542 45.300 M197.400 163.033 C 195.640 163.810,188.800 166.703,182.200 169.464 C 175.600 172.224,164.980 176.697,158.600 179.403 C 152.220 182.109,143.670 185.709,139.600 187.402 C 135.530 189.095,126.980 192.694,120.600 195.401 C 114.220 198.108,106.847 201.220,104.215 202.316 C 98.373 204.750,98.430 204.578,102.704 206.897 C 105.996 208.684,107.573 209.554,113.400 212.796 C 114.720 213.530,116.610 214.578,117.600 215.125 C 118.590 215.671,120.750 216.875,122.400 217.800 C 124.050 218.725,126.300 219.983,127.400 220.594 C 138.781 226.919,144.088 229.868,145.600 230.707 C 146.590 231.256,150.370 233.362,154.000 235.386 C 157.630 237.410,161.590 239.609,162.800 240.272 C 164.010 240.935,168.330 243.329,172.400 245.593 C 176.470 247.856,180.610 250.158,181.600 250.708 C 182.590 251.258,187.228 253.843,191.907 256.454 C 200.979 261.515,200.877 261.474,202.400 260.661 C 203.385 260.135,229.083 245.765,232.200 243.997 C 233.080 243.498,238.390 240.529,244.000 237.400 C 249.610 234.271,254.920 231.301,255.800 230.801 C 256.680 230.301,264.330 226.014,272.800 221.275 C 281.270 216.536,290.792 211.205,293.961 209.429 C 297.129 207.653,299.703 206.044,299.681 205.854 C 299.659 205.664,293.196 202.645,285.320 199.145 C 277.444 195.644,270.460 192.528,269.800 192.220 C 269.140 191.913,265.180 190.138,261.000 188.278 C 256.820 186.417,243.410 180.440,231.200 174.994 C 203.278 162.541,201.139 161.598,200.842 161.610 C 200.709 161.616,199.160 162.256,197.400 163.033 M103.200 229.430 C 103.200 229.557,103.979 230.682,104.931 231.930 C 105.883 233.179,115.931 247.160,127.260 263.000 C 138.589 278.840,153.785 300.055,161.029 310.145 C 168.273 320.234,176.283 331.394,178.829 334.945 C 197.448 360.906,201.289 366.210,201.529 366.286 C 201.828 366.381,205.383 361.465,247.721 302.400 C 253.004 295.030,260.119 285.130,263.532 280.400 C 282.615 253.955,300.031 229.498,299.884 229.351 C 299.792 229.258,297.575 230.416,294.958 231.924 C 292.341 233.432,289.300 235.166,288.200 235.778 C 287.100 236.389,282.960 238.738,279.000 240.997 C 275.040 243.255,271.170 245.457,270.400 245.890 C 268.736 246.824,257.649 253.122,243.800 260.999 C 221.747 273.542,218.938 275.138,217.400 275.997 C 216.520 276.489,212.478 278.786,208.418 281.102 C 201.766 284.897,200.929 285.273,199.954 284.905 C 199.360 284.681,194.312 281.845,188.737 278.604 C 183.161 275.363,175.810 271.091,172.400 269.111 C 168.990 267.131,165.030 264.831,163.600 264.000 C 160.280 262.071,153.241 257.996,144.600 253.002 C 140.860 250.840,134.650 247.240,130.800 245.001 C 126.950 242.762,120.740 239.161,117.000 236.998 C 113.260 234.835,108.735 232.195,106.944 231.132 C 103.723 229.220,103.200 228.982,103.200 229.430 " stroke="none" fill="#33fa9b" fill-rule="evenodd"></path><path id="path1" d="M183.600 8.742 C 183.600 8.930,181.125 9.211,178.100 9.366 C 175.075 9.522,172.540 9.818,172.467 10.025 C 172.393 10.231,171.268 10.400,169.967 10.400 C 168.665 10.400,167.600 10.561,167.600 10.758 C 167.600 10.955,166.160 11.244,164.400 11.400 C 162.640 11.556,161.200 11.845,161.200 12.042 C 161.200 12.239,160.390 12.400,159.400 12.400 C 158.410 12.400,157.600 12.566,157.600 12.768 C 157.600 12.971,156.430 13.262,155.000 13.415 C 153.570 13.568,152.400 13.852,152.400 14.047 C 152.400 14.241,151.770 14.400,151.000 14.400 C 150.230 14.400,149.600 14.559,149.600 14.754 C 149.600 14.949,148.610 15.232,147.400 15.383 C 146.190 15.534,145.200 15.825,145.200 16.029 C 145.200 16.233,144.750 16.400,144.200 16.400 C 143.650 16.400,143.200 16.557,143.200 16.748 C 143.200 16.940,142.120 17.219,140.800 17.368 C 139.480 17.518,138.400 17.811,138.400 18.020 C 138.400 18.229,137.950 18.400,137.400 18.400 C 136.850 18.400,136.400 18.578,136.400 18.795 C 136.400 19.013,135.680 19.306,134.800 19.446 C 133.920 19.587,133.200 19.859,133.200 20.051 C 133.200 20.243,132.750 20.400,132.200 20.400 C 131.650 20.400,131.200 20.569,131.200 20.775 C 131.200 20.982,130.390 21.272,129.400 21.421 C 128.410 21.569,127.600 21.850,127.600 22.045 C 127.600 22.240,127.330 22.400,127.000 22.400 C 126.670 22.400,126.400 22.557,126.400 22.749 C 126.400 22.941,125.680 23.213,124.800 23.354 C 123.920 23.494,123.200 23.787,123.200 24.005 C 123.200 24.222,122.840 24.400,122.400 24.400 C 121.960 24.400,121.600 24.578,121.600 24.795 C 121.600 25.013,120.880 25.306,120.000 25.446 C 119.120 25.587,118.400 25.859,118.400 26.051 C 118.400 26.243,118.130 26.400,117.800 26.400 C 117.470 26.400,117.200 26.560,117.200 26.755 C 117.200 26.951,116.570 27.229,115.800 27.374 C 115.030 27.518,114.400 27.808,114.400 28.018 C 114.400 28.228,114.130 28.400,113.800 28.400 C 113.470 28.400,113.200 28.560,113.200 28.755 C 113.200 28.951,112.570 29.229,111.800 29.374 C 111.030 29.518,110.400 29.808,110.400 30.018 C 110.400 30.228,110.130 30.400,109.800 30.400 C 109.470 30.400,109.200 30.577,109.200 30.792 C 109.200 31.008,108.750 31.298,108.200 31.436 C 107.650 31.574,107.200 31.847,107.200 32.043 C 107.200 32.240,106.840 32.400,106.400 32.400 C 105.960 32.400,105.600 32.560,105.600 32.757 C 105.600 32.953,105.116 33.235,104.524 33.383 C 103.932 33.532,103.156 33.989,102.800 34.400 C 102.444 34.811,101.656 35.271,101.048 35.424 C 100.441 35.576,99.733 36.038,99.476 36.450 C 99.218 36.863,98.685 37.200,98.291 37.200 C 97.897 37.200,97.471 37.470,97.345 37.800 C 97.218 38.130,96.774 38.400,96.357 38.400 C 95.941 38.400,95.600 38.560,95.600 38.757 C 95.600 38.953,95.150 39.226,94.600 39.364 C 94.050 39.502,93.600 39.792,93.600 40.008 C 93.600 40.223,93.396 40.400,93.146 40.400 C 92.896 40.400,92.275 40.850,91.765 41.400 C 91.255 41.950,90.579 42.400,90.262 42.400 C 89.945 42.400,89.582 42.670,89.455 43.000 C 89.329 43.330,88.872 43.600,88.440 43.600 C 88.007 43.600,87.543 43.951,87.406 44.380 C 87.270 44.808,86.779 45.280,86.313 45.427 C 85.848 45.575,85.039 46.124,84.516 46.648 C 83.992 47.172,83.345 47.600,83.077 47.600 C 82.809 47.600,82.252 48.050,81.839 48.600 C 81.426 49.150,80.765 49.600,80.371 49.600 C 79.977 49.600,79.543 49.951,79.406 50.380 C 79.270 50.808,78.817 51.267,78.400 51.400 C 77.983 51.533,77.530 51.992,77.394 52.420 C 77.257 52.849,76.861 53.200,76.513 53.200 C 76.165 53.200,75.017 54.100,73.963 55.200 C 72.908 56.300,71.864 57.200,71.642 57.200 C 71.116 57.200,57.200 71.116,57.200 71.642 C 57.200 71.864,56.300 72.908,55.200 73.963 C 54.100 75.017,53.200 76.165,53.200 76.513 C 53.200 76.861,52.849 77.257,52.420 77.394 C 51.992 77.530,51.533 77.983,51.400 78.400 C 51.267 78.817,50.808 79.270,50.380 79.406 C 49.951 79.543,49.600 79.977,49.600 80.371 C 49.600 80.765,49.150 81.426,48.600 81.839 C 48.050 82.252,47.600 82.809,47.600 83.077 C 47.600 83.345,47.172 83.992,46.648 84.516 C 46.124 85.039,45.575 85.848,45.427 86.313 C 45.280 86.779,44.808 87.270,44.380 87.406 C 43.951 87.543,43.600 88.007,43.600 88.440 C 43.600 88.872,43.330 89.329,43.000 89.455 C 42.670 89.582,42.400 89.945,42.400 90.262 C 42.400 90.579,41.950 91.255,41.400 91.765 C 40.850 92.275,40.400 92.896,40.400 93.146 C 40.400 93.396,40.223 93.600,40.008 93.600 C 39.792 93.600,39.502 94.050,39.364 94.600 C 39.226 95.150,38.953 95.600,38.757 95.600 C 38.560 95.600,38.400 95.941,38.400 96.357 C 38.400 96.774,38.130 97.218,37.800 97.345 C 37.470 97.471,37.200 97.897,37.200 98.291 C 37.200 98.685,36.863 99.218,36.450 99.476 C 36.038 99.733,35.576 100.441,35.424 101.048 C 35.271 101.656,34.811 102.444,34.400 102.800 C 33.989 103.156,33.532 103.932,33.383 104.524 C 33.235 105.116,32.953 105.600,32.757 105.600 C 32.560 105.600,32.400 105.960,32.400 106.400 C 32.400 106.840,32.240 107.200,32.043 107.200 C 31.847 107.200,31.574 107.650,31.436 108.200 C 31.298 108.750,31.008 109.200,30.792 109.200 C 30.577 109.200,30.400 109.470,30.400 109.800 C 30.400 110.130,30.228 110.400,30.018 110.400 C 29.808 110.400,29.518 111.030,29.374 111.800 C 29.229 112.570,28.951 113.200,28.755 113.200 C 28.560 113.200,28.400 113.470,28.400 113.800 C 28.400 114.130,28.228 114.400,28.018 114.400 C 27.808 114.400,27.518 115.030,27.374 115.800 C 27.229 116.570,26.951 117.200,26.755 117.200 C 26.560 117.200,26.400 117.470,26.400 117.800 C 26.400 118.130,26.243 118.400,26.051 118.400 C 25.859 118.400,25.587 119.120,25.446 120.000 C 25.306 120.880,25.013 121.600,24.795 121.600 C 24.578 121.600,24.400 121.960,24.400 122.400 C 24.400 122.840,24.222 123.200,24.005 123.200 C 23.787 123.200,23.494 123.920,23.354 124.800 C 23.213 125.680,22.941 126.400,22.749 126.400 C 22.557 126.400,22.400 126.670,22.400 127.000 C 22.400 127.330,22.240 127.600,22.045 127.600 C 21.850 127.600,21.569 128.410,21.421 129.400 C 21.272 130.390,20.982 131.200,20.775 131.200 C 20.569 131.200,20.400 131.650,20.400 132.200 C 20.400 132.750,20.243 133.200,20.051 133.200 C 19.859 133.200,19.587 133.920,19.446 134.800 C 19.306 135.680,19.013 136.400,18.795 136.400 C 18.578 136.400,18.400 136.850,18.400 137.400 C 18.400 137.950,18.229 138.400,18.020 138.400 C 17.811 138.400,17.518 139.480,17.368 140.800 C 17.219 142.120,16.940 143.200,16.748 143.200 C 16.557 143.200,16.400 143.650,16.400 144.200 C 16.400 144.750,16.233 145.200,16.029 145.200 C 15.825 145.200,15.534 146.190,15.383 147.400 C 15.232 148.610,14.949 149.600,14.754 149.600 C 14.559 149.600,14.400 150.230,14.400 151.000 C 14.400 151.770,14.241 152.400,14.047 152.400 C 13.852 152.400,13.568 153.570,13.415 155.000 C 13.262 156.430,12.971 157.600,12.768 157.600 C 12.566 157.600,12.400 158.410,12.400 159.400 C 12.400 160.390,12.239 161.200,12.042 161.200 C 11.845 161.200,11.556 162.640,11.400 164.400 C 11.244 166.160,10.955 167.600,10.758 167.600 C 10.561 167.600,10.400 168.665,10.400 169.967 C 10.400 171.268,10.231 172.393,10.025 172.467 C 9.818 172.540,9.522 175.075,9.366 178.100 C 9.211 181.125,8.930 183.600,8.742 183.600 C 8.554 183.600,8.400 191.070,8.400 200.200 C 8.400 209.330,8.553 216.800,8.740 216.800 C 8.928 216.800,9.207 219.365,9.361 222.500 C 9.515 225.635,9.812 228.260,10.020 228.333 C 10.229 228.407,10.400 229.442,10.400 230.633 C 10.400 231.825,10.559 232.800,10.753 232.800 C 10.947 232.800,11.233 234.330,11.389 236.200 C 11.544 238.070,11.836 239.600,12.036 239.600 C 12.236 239.600,12.400 240.320,12.400 241.200 C 12.400 242.080,12.562 242.800,12.759 242.800 C 12.957 242.800,13.245 244.060,13.400 245.600 C 13.555 247.140,13.843 248.400,14.041 248.400 C 14.238 248.400,14.400 248.940,14.400 249.600 C 14.400 250.260,14.557 250.800,14.748 250.800 C 14.940 250.800,15.219 251.880,15.368 253.200 C 15.518 254.520,15.811 255.600,16.020 255.600 C 16.229 255.600,16.400 256.050,16.400 256.600 C 16.400 257.150,16.555 257.600,16.744 257.600 C 16.934 257.600,17.194 258.486,17.322 259.569 C 17.450 260.653,17.730 261.868,17.944 262.269 C 18.876 264.021,19.600 265.984,19.600 266.760 C 19.600 267.222,19.780 267.600,20.000 267.600 C 20.220 267.600,20.400 268.050,20.400 268.600 C 20.400 269.150,20.578 269.600,20.795 269.600 C 21.013 269.600,21.306 270.320,21.446 271.200 C 21.587 272.080,21.859 272.800,22.051 272.800 C 22.243 272.800,22.400 273.160,22.400 273.600 C 22.400 274.040,22.557 274.400,22.749 274.400 C 22.941 274.400,23.213 275.120,23.354 276.000 C 23.494 276.880,23.787 277.600,24.005 277.600 C 24.222 277.600,24.400 277.870,24.400 278.200 C 24.400 278.530,24.569 278.800,24.775 278.800 C 24.982 278.800,25.272 279.610,25.421 280.600 C 25.569 281.590,25.850 282.400,26.045 282.400 C 26.240 282.400,26.400 282.670,26.400 283.000 C 26.400 283.330,26.572 283.600,26.782 283.600 C 26.992 283.600,27.282 284.230,27.426 285.000 C 27.571 285.770,27.849 286.400,28.045 286.400 C 28.240 286.400,28.400 286.670,28.400 287.000 C 28.400 287.330,28.572 287.600,28.782 287.600 C 28.992 287.600,29.282 288.230,29.426 289.000 C 29.571 289.770,29.849 290.400,30.045 290.400 C 30.240 290.400,30.400 290.670,30.400 291.000 C 30.400 291.330,30.577 291.600,30.792 291.600 C 31.008 291.600,31.298 292.050,31.436 292.600 C 31.574 293.150,31.847 293.600,32.043 293.600 C 32.240 293.600,32.400 293.870,32.400 294.200 C 32.400 294.530,32.557 294.800,32.750 294.800 C 32.943 294.800,33.213 295.364,33.351 296.054 C 33.489 296.743,33.935 297.598,34.344 297.954 C 34.752 298.309,35.227 299.050,35.400 299.600 C 35.573 300.150,36.023 300.870,36.400 301.200 C 36.777 301.530,37.213 302.205,37.370 302.700 C 37.526 303.195,37.822 303.600,38.027 303.600 C 38.232 303.600,38.400 303.870,38.400 304.200 C 38.400 304.530,38.560 304.800,38.757 304.800 C 38.953 304.800,39.226 305.250,39.364 305.800 C 39.502 306.350,39.792 306.800,40.008 306.800 C 40.223 306.800,40.400 307.027,40.400 307.304 C 40.400 307.581,40.850 308.293,41.400 308.887 C 41.950 309.480,42.400 310.153,42.400 310.383 C 42.400 310.612,42.568 310.800,42.773 310.800 C 42.978 310.800,43.270 311.190,43.421 311.666 C 43.572 312.142,44.124 312.961,44.648 313.484 C 45.172 314.008,45.600 314.655,45.600 314.923 C 45.600 315.191,46.050 315.748,46.600 316.161 C 47.150 316.574,47.600 317.235,47.600 317.629 C 47.600 318.023,47.951 318.457,48.380 318.594 C 48.808 318.730,49.283 319.232,49.435 319.710 C 49.587 320.188,50.496 321.342,51.455 322.275 C 52.415 323.207,53.200 324.148,53.200 324.366 C 53.200 324.584,54.078 325.640,55.152 326.714 C 56.225 327.787,57.224 329.046,57.372 329.512 C 57.520 329.978,57.983 330.467,58.400 330.600 C 58.817 330.733,59.267 331.183,59.400 331.600 C 59.533 332.017,59.983 332.467,60.400 332.600 C 60.817 332.733,61.267 333.183,61.400 333.600 C 61.533 334.017,61.983 334.467,62.400 334.600 C 62.817 334.733,63.267 335.183,63.400 335.600 C 63.533 336.017,63.983 336.467,64.400 336.600 C 64.817 336.733,65.267 337.183,65.400 337.600 C 65.533 338.017,65.983 338.467,66.400 338.600 C 66.817 338.733,67.267 339.183,67.400 339.600 C 67.533 340.017,67.983 340.467,68.400 340.600 C 68.817 340.733,69.267 341.183,69.400 341.600 C 69.533 342.017,69.992 342.470,70.420 342.606 C 70.849 342.743,71.200 343.022,71.200 343.227 C 71.200 343.432,71.398 343.600,71.640 343.600 C 71.881 343.600,72.961 344.500,74.038 345.600 C 75.115 346.700,76.184 347.600,76.414 347.600 C 76.644 347.600,77.517 348.320,78.354 349.200 C 79.191 350.080,80.162 350.800,80.511 350.800 C 80.860 350.800,81.257 351.151,81.394 351.580 C 81.530 352.008,82.021 352.480,82.487 352.627 C 82.952 352.775,83.761 353.324,84.284 353.848 C 84.808 354.372,85.455 354.800,85.723 354.800 C 85.991 354.800,86.548 355.250,86.961 355.800 C 87.374 356.350,88.035 356.800,88.429 356.800 C 88.823 356.800,89.260 357.160,89.400 357.600 C 89.540 358.042,90.005 358.400,90.440 358.400 C 90.872 358.400,91.320 358.647,91.436 358.950 C 91.552 359.252,92.266 359.833,93.023 360.241 C 93.781 360.648,94.400 361.121,94.400 361.291 C 94.400 361.461,94.670 361.600,95.000 361.600 C 95.330 361.600,95.600 361.780,95.600 362.000 C 95.600 362.220,95.966 362.400,96.413 362.400 C 96.859 362.400,97.329 362.670,97.455 363.000 C 97.582 363.330,98.007 363.600,98.400 363.600 C 98.793 363.600,99.218 363.870,99.345 364.200 C 99.471 364.530,99.941 364.800,100.387 364.800 C 100.834 364.800,101.200 364.980,101.200 365.200 C 101.200 365.420,101.470 365.600,101.800 365.600 C 102.130 365.600,102.400 365.777,102.400 365.992 C 102.400 366.208,102.850 366.498,103.400 366.636 C 103.950 366.774,104.400 367.047,104.400 367.243 C 104.400 367.440,104.670 367.600,105.000 367.600 C 105.330 367.600,105.600 367.757,105.600 367.950 C 105.600 368.142,106.164 368.413,106.854 368.551 C 107.543 368.689,108.409 369.149,108.777 369.574 C 109.146 369.999,109.932 370.468,110.524 370.617 C 111.116 370.765,111.600 371.047,111.600 371.243 C 111.600 371.440,111.960 371.600,112.400 371.600 C 112.840 371.600,113.200 371.766,113.200 371.968 C 113.200 372.171,113.740 372.455,114.400 372.600 C 115.060 372.745,115.600 373.029,115.600 373.232 C 115.600 373.434,115.960 373.600,116.400 373.600 C 116.840 373.600,117.200 373.778,117.200 373.995 C 117.200 374.213,117.920 374.506,118.800 374.646 C 119.680 374.787,120.400 375.059,120.400 375.251 C 120.400 375.443,120.670 375.600,121.000 375.600 C 121.330 375.600,121.600 375.760,121.600 375.955 C 121.600 376.151,122.230 376.429,123.000 376.574 C 123.770 376.718,124.400 377.008,124.400 377.218 C 124.400 377.428,124.850 377.600,125.400 377.600 C 125.950 377.600,126.400 377.778,126.400 377.995 C 126.400 378.213,127.120 378.506,128.000 378.646 C 128.880 378.787,129.600 379.059,129.600 379.251 C 129.600 379.443,129.960 379.600,130.400 379.600 C 130.840 379.600,131.200 379.763,131.200 379.962 C 131.200 380.162,132.100 380.449,133.200 380.600 C 134.300 380.751,135.200 380.994,135.200 381.140 C 135.200 381.536,137.347 382.409,138.970 382.673 C 139.757 382.800,140.400 383.061,140.400 383.252 C 140.400 383.444,141.030 383.600,141.800 383.600 C 142.570 383.600,143.200 383.763,143.200 383.962 C 143.200 384.162,144.100 384.449,145.200 384.600 C 146.300 384.751,147.200 385.038,147.200 385.238 C 147.200 385.437,147.740 385.600,148.400 385.600 C 149.060 385.600,149.600 385.762,149.600 385.959 C 149.600 386.157,150.860 386.445,152.400 386.600 C 153.940 386.755,155.200 387.043,155.200 387.241 C 155.200 387.438,155.740 387.600,156.400 387.600 C 157.060 387.600,157.600 387.759,157.600 387.953 C 157.600 388.147,159.130 388.433,161.000 388.589 C 162.870 388.744,164.400 389.036,164.400 389.236 C 164.400 389.436,165.109 389.600,165.976 389.600 C 166.843 389.600,167.653 389.762,167.776 389.960 C 167.898 390.159,170.069 390.450,172.599 390.608 C 175.130 390.767,177.200 391.054,177.200 391.248 C 177.200 391.442,178.629 391.600,180.376 391.600 C 182.123 391.600,183.664 391.780,183.800 392.000 C 184.140 392.550,216.800 392.550,216.800 392.000 C 216.800 391.765,218.200 391.600,220.200 391.600 C 222.070 391.600,223.600 391.442,223.600 391.248 C 223.600 391.054,225.670 390.767,228.200 390.608 C 230.730 390.450,232.800 390.159,232.800 389.961 C 232.800 389.762,233.610 389.600,234.600 389.600 C 235.590 389.600,236.400 389.439,236.400 389.242 C 236.400 389.045,237.840 388.756,239.600 388.600 C 241.360 388.444,242.800 388.155,242.800 387.958 C 242.800 387.761,243.430 387.600,244.200 387.600 C 244.970 387.600,245.600 387.441,245.600 387.247 C 245.600 387.052,246.770 386.768,248.200 386.615 C 249.630 386.462,250.800 386.171,250.800 385.968 C 250.800 385.766,251.430 385.600,252.200 385.600 C 252.970 385.600,253.600 385.437,253.600 385.238 C 253.600 385.038,254.500 384.751,255.600 384.600 C 256.700 384.449,257.600 384.162,257.600 383.962 C 257.600 383.763,258.230 383.600,259.000 383.600 C 259.770 383.600,260.400 383.444,260.400 383.252 C 260.400 383.061,261.043 382.800,261.830 382.673 C 263.453 382.409,265.600 381.536,265.600 381.140 C 265.600 380.994,266.500 380.751,267.600 380.600 C 268.700 380.449,269.600 380.162,269.600 379.962 C 269.600 379.763,269.870 379.600,270.200 379.600 C 270.530 379.600,270.800 379.440,270.800 379.245 C 270.800 379.050,271.610 378.769,272.600 378.621 C 273.590 378.472,274.400 378.182,274.400 377.975 C 274.400 377.769,274.850 377.600,275.400 377.600 C 275.950 377.600,276.400 377.434,276.400 377.232 C 276.400 377.029,276.940 376.745,277.600 376.600 C 278.260 376.455,278.800 376.171,278.800 375.968 C 278.800 375.766,279.160 375.600,279.600 375.600 C 280.040 375.600,280.400 375.443,280.400 375.251 C 280.400 375.059,281.120 374.787,282.000 374.646 C 282.880 374.506,283.600 374.213,283.600 373.995 C 283.600 373.778,283.870 373.600,284.200 373.600 C 284.530 373.600,284.800 373.440,284.800 373.245 C 284.800 373.049,285.430 372.771,286.200 372.626 C 286.970 372.482,287.600 372.192,287.600 371.982 C 287.600 371.772,287.870 371.600,288.200 371.600 C 288.530 371.600,288.800 371.442,288.800 371.250 C 288.800 371.058,289.364 370.787,290.054 370.649 C 290.743 370.511,291.609 370.051,291.977 369.626 C 292.346 369.201,293.132 368.732,293.724 368.583 C 294.316 368.435,294.800 368.153,294.800 367.957 C 294.800 367.760,295.160 367.600,295.600 367.600 C 296.040 367.600,296.400 367.440,296.400 367.243 C 296.400 367.047,296.850 366.774,297.400 366.636 C 297.950 366.498,298.400 366.208,298.400 365.992 C 298.400 365.777,298.670 365.600,299.000 365.600 C 299.330 365.600,299.600 365.440,299.600 365.243 C 299.600 365.047,300.050 364.774,300.600 364.636 C 301.150 364.498,301.600 364.208,301.600 363.992 C 301.600 363.777,301.870 363.600,302.200 363.600 C 302.530 363.600,302.800 363.423,302.800 363.208 C 302.800 362.992,303.250 362.702,303.800 362.564 C 304.350 362.426,304.800 362.174,304.800 362.003 C 304.800 361.833,305.115 361.579,305.500 361.440 C 306.682 361.013,308.004 360.146,308.837 359.252 C 309.274 358.784,309.854 358.400,310.127 358.400 C 310.400 358.400,310.883 358.040,311.200 357.600 C 311.517 357.160,311.999 356.800,312.270 356.800 C 312.542 356.800,313.192 356.372,313.716 355.848 C 314.239 355.324,315.048 354.775,315.513 354.627 C 315.979 354.480,316.470 354.008,316.606 353.580 C 316.743 353.151,317.177 352.800,317.571 352.800 C 317.965 352.800,318.626 352.350,319.039 351.800 C 319.452 351.250,320.010 350.800,320.279 350.800 C 320.549 350.800,321.482 350.080,322.353 349.200 C 323.224 348.320,324.054 347.600,324.197 347.600 C 324.499 347.600,325.898 346.397,327.081 345.119 C 327.809 344.333,328.737 343.600,329.005 343.600 C 329.325 343.600,343.600 329.313,343.600 328.993 C 343.600 328.700,344.820 327.287,346.081 326.119 C 346.877 325.382,347.600 324.461,347.600 324.186 C 347.600 324.049,348.320 323.224,349.200 322.353 C 350.080 321.482,350.800 320.549,350.800 320.279 C 350.800 320.010,351.250 319.452,351.800 319.039 C 352.350 318.626,352.800 317.965,352.800 317.571 C 352.800 317.177,353.151 316.743,353.580 316.606 C 354.008 316.470,354.480 315.979,354.627 315.513 C 354.775 315.048,355.324 314.239,355.848 313.716 C 356.372 313.192,356.800 312.542,356.800 312.270 C 356.800 311.999,357.160 311.517,357.600 311.200 C 358.040 310.883,358.400 310.400,358.400 310.127 C 358.400 309.854,358.784 309.274,359.252 308.837 C 360.146 308.004,361.013 306.682,361.440 305.500 C 361.579 305.115,361.833 304.800,362.003 304.800 C 362.174 304.800,362.426 304.350,362.564 303.800 C 362.702 303.250,362.992 302.800,363.208 302.800 C 363.423 302.800,363.600 302.530,363.600 302.200 C 363.600 301.870,363.777 301.600,363.992 301.600 C 364.208 301.600,364.498 301.150,364.636 300.600 C 364.774 300.050,365.047 299.600,365.243 299.600 C 365.440 299.600,365.600 299.330,365.600 299.000 C 365.600 298.670,365.777 298.400,365.992 298.400 C 366.208 298.400,366.498 297.950,366.636 297.400 C 366.774 296.850,367.047 296.400,367.243 296.400 C 367.440 296.400,367.600 296.040,367.600 295.600 C 367.600 295.160,367.760 294.800,367.957 294.800 C 368.153 294.800,368.435 294.316,368.583 293.724 C 368.732 293.132,369.201 292.346,369.626 291.977 C 370.051 291.609,370.511 290.743,370.649 290.054 C 370.787 289.364,371.058 288.800,371.250 288.800 C 371.442 288.800,371.600 288.530,371.600 288.200 C 371.600 287.870,371.772 287.600,371.982 287.600 C 372.192 287.600,372.482 286.970,372.626 286.200 C 372.771 285.430,373.049 284.800,373.245 284.800 C 373.440 284.800,373.600 284.530,373.600 284.200 C 373.600 283.870,373.778 283.600,373.995 283.600 C 374.213 283.600,374.506 282.880,374.646 282.000 C 374.787 281.120,375.059 280.400,375.251 280.400 C 375.443 280.400,375.600 280.040,375.600 279.600 C 375.600 279.160,375.766 278.800,375.968 278.800 C 376.171 278.800,376.455 278.260,376.600 277.600 C 376.745 276.940,377.029 276.400,377.232 276.400 C 377.434 276.400,377.600 275.950,377.600 275.400 C 377.600 274.850,377.769 274.400,377.975 274.400 C 378.182 274.400,378.472 273.590,378.621 272.600 C 378.769 271.610,379.050 270.800,379.245 270.800 C 379.440 270.800,379.600 270.530,379.600 270.200 C 379.600 269.870,379.763 269.600,379.962 269.600 C 380.162 269.600,380.449 268.700,380.600 267.600 C 380.751 266.500,380.994 265.600,381.140 265.600 C 381.536 265.600,382.409 263.453,382.673 261.830 C 382.800 261.043,383.061 260.400,383.252 260.400 C 383.444 260.400,383.600 259.770,383.600 259.000 C 383.600 258.230,383.763 257.600,383.962 257.600 C 384.162 257.600,384.449 256.700,384.600 255.600 C 384.751 254.500,385.038 253.600,385.238 253.600 C 385.437 253.600,385.600 252.970,385.600 252.200 C 385.600 251.430,385.766 250.800,385.968 250.800 C 386.171 250.800,386.462 249.630,386.615 248.200 C 386.768 246.770,387.052 245.600,387.247 245.600 C 387.441 245.600,387.600 244.970,387.600 244.200 C 387.600 243.430,387.761 242.800,387.958 242.800 C 388.155 242.800,388.444 241.360,388.600 239.600 C 388.756 237.840,389.045 236.400,389.242 236.400 C 389.439 236.400,389.600 235.590,389.600 234.600 C 389.600 233.610,389.762 232.800,389.961 232.800 C 390.159 232.800,390.450 230.730,390.608 228.200 C 390.767 225.670,391.054 223.600,391.248 223.600 C 391.442 223.600,391.600 222.070,391.600 220.200 C 391.600 218.200,391.765 216.800,392.000 216.800 C 392.260 216.800,392.400 211.075,392.400 200.424 C 392.400 189.937,392.256 183.958,392.000 183.800 C 391.780 183.664,391.600 182.123,391.600 180.376 C 391.600 178.629,391.442 177.200,391.248 177.200 C 391.054 177.200,390.767 175.130,390.608 172.599 C 390.450 170.069,390.159 167.898,389.960 167.776 C 389.762 167.653,389.600 166.843,389.600 165.976 C 389.600 165.109,389.436 164.400,389.236 164.400 C 389.036 164.400,388.744 162.870,388.589 161.000 C 388.433 159.130,388.147 157.600,387.953 157.600 C 387.759 157.600,387.600 157.060,387.600 156.400 C 387.600 155.740,387.438 155.200,387.241 155.200 C 387.043 155.200,386.755 153.940,386.600 152.400 C 386.445 150.860,386.157 149.600,385.959 149.600 C 385.762 149.600,385.600 149.060,385.600 148.400 C 385.600 147.740,385.437 147.200,385.238 147.200 C 385.038 147.200,384.751 146.300,384.600 145.200 C 384.449 144.100,384.162 143.200,383.962 143.200 C 383.763 143.200,383.600 142.570,383.600 141.800 C 383.600 141.030,383.444 140.400,383.252 140.400 C 383.061 140.400,382.800 139.757,382.673 138.970 C 382.409 137.347,381.536 135.200,381.140 135.200 C 380.994 135.200,380.751 134.300,380.600 133.200 C 380.449 132.100,380.162 131.200,379.962 131.200 C 379.763 131.200,379.600 130.840,379.600 130.400 C 379.600 129.960,379.443 129.600,379.251 129.600 C 379.059 129.600,378.787 128.880,378.646 128.000 C 378.506 127.120,378.213 126.400,377.995 126.400 C 377.778 126.400,377.600 125.950,377.600 125.400 C 377.600 124.850,377.428 124.400,377.218 124.400 C 377.008 124.400,376.718 123.770,376.574 123.000 C 376.429 122.230,376.151 121.600,375.955 121.600 C 375.760 121.600,375.600 121.330,375.600 121.000 C 375.600 120.670,375.443 120.400,375.251 120.400 C 375.059 120.400,374.787 119.680,374.646 118.800 C 374.506 117.920,374.213 117.200,373.995 117.200 C 373.778 117.200,373.600 116.840,373.600 116.400 C 373.600 115.960,373.434 115.600,373.232 115.600 C 373.029 115.600,372.745 115.060,372.600 114.400 C 372.455 113.740,372.171 113.200,371.968 113.200 C 371.766 113.200,371.600 112.840,371.600 112.400 C 371.600 111.960,371.440 111.600,371.243 111.600 C 371.047 111.600,370.765 111.116,370.617 110.524 C 370.468 109.932,369.999 109.146,369.574 108.777 C 369.149 108.409,368.689 107.543,368.551 106.854 C 368.413 106.164,368.142 105.600,367.950 105.600 C 367.757 105.600,367.600 105.330,367.600 105.000 C 367.600 104.670,367.440 104.400,367.243 104.400 C 367.047 104.400,366.774 103.950,366.636 103.400 C 366.498 102.850,366.208 102.400,365.992 102.400 C 365.777 102.400,365.600 102.130,365.600 101.800 C 365.600 101.470,365.420 101.200,365.200 101.200 C 364.980 101.200,364.800 100.834,364.800 100.387 C 364.800 99.941,364.530 99.471,364.200 99.345 C 363.870 99.218,363.600 98.793,363.600 98.400 C 363.600 98.007,363.330 97.582,363.000 97.455 C 362.670 97.329,362.400 96.859,362.400 96.413 C 362.400 95.966,362.220 95.600,362.000 95.600 C 361.780 95.600,361.600 95.330,361.600 95.000 C 361.600 94.670,361.461 94.400,361.291 94.400 C 361.121 94.400,360.648 93.781,360.241 93.023 C 359.833 92.266,359.252 91.552,358.950 91.436 C 358.647 91.320,358.400 90.872,358.400 90.440 C 358.400 90.005,358.042 89.540,357.600 89.400 C 357.160 89.260,356.800 88.823,356.800 88.429 C 356.800 88.035,356.350 87.374,355.800 86.961 C 355.250 86.548,354.800 85.991,354.800 85.723 C 354.800 85.455,354.372 84.808,353.848 84.284 C 353.324 83.761,352.775 82.952,352.627 82.487 C 352.480 82.021,352.008 81.530,351.580 81.394 C 351.151 81.257,350.800 80.860,350.800 80.511 C 350.800 80.162,350.080 79.191,349.200 78.354 C 348.320 77.517,347.600 76.644,347.600 76.414 C 347.600 76.184,346.700 75.115,345.600 74.038 C 344.500 72.961,343.600 71.881,343.600 71.640 C 343.600 71.398,343.432 71.200,343.227 71.200 C 343.022 71.200,342.743 70.849,342.606 70.420 C 342.470 69.992,342.017 69.533,341.600 69.400 C 341.183 69.267,340.733 68.817,340.600 68.400 C 340.467 67.983,340.017 67.533,339.600 67.400 C 339.183 67.267,338.733 66.817,338.600 66.400 C 338.467 65.983,338.017 65.533,337.600 65.400 C 337.183 65.267,336.733 64.817,336.600 64.400 C 336.467 63.983,336.017 63.533,335.600 63.400 C 335.183 63.267,334.733 62.817,334.600 62.400 C 334.467 61.983,334.017 61.533,333.600 61.400 C 333.183 61.267,332.733 60.817,332.600 60.400 C 332.467 59.983,332.017 59.533,331.600 59.400 C 331.183 59.267,330.733 58.817,330.600 58.400 C 330.467 57.983,329.978 57.520,329.512 57.372 C 329.046 57.224,327.787 56.225,326.714 55.152 C 325.640 54.078,324.584 53.200,324.366 53.200 C 324.148 53.200,323.207 52.415,322.275 51.455 C 321.342 50.496,320.188 49.587,319.710 49.435 C 319.232 49.283,318.730 48.808,318.594 48.380 C 318.457 47.951,318.023 47.600,317.629 47.600 C 317.235 47.600,316.574 47.150,316.161 46.600 C 315.748 46.050,315.191 45.600,314.923 45.600 C 314.655 45.600,314.008 45.172,313.484 44.648 C 312.961 44.124,312.142 43.572,311.666 43.421 C 311.190 43.270,310.800 42.978,310.800 42.773 C 310.800 42.568,310.612 42.400,310.383 42.400 C 310.153 42.400,309.480 41.950,308.887 41.400 C 308.293 40.850,307.581 40.400,307.304 40.400 C 307.027 40.400,306.800 40.223,306.800 40.008 C 306.800 39.792,306.350 39.502,305.800 39.364 C 305.250 39.226,304.800 38.953,304.800 38.757 C 304.800 38.560,304.530 38.400,304.200 38.400 C 303.870 38.400,303.600 38.232,303.600 38.027 C 303.600 37.822,303.195 37.526,302.700 37.370 C 302.205 37.213,301.530 36.777,301.200 36.400 C 300.870 36.023,300.150 35.573,299.600 35.400 C 299.050 35.227,298.309 34.752,297.954 34.344 C 297.598 33.935,296.743 33.489,296.054 33.351 C 295.364 33.213,294.800 32.943,294.800 32.750 C 294.800 32.557,294.530 32.400,294.200 32.400 C 293.870 32.400,293.600 32.240,293.600 32.043 C 293.600 31.847,293.150 31.574,292.600 31.436 C 292.050 31.298,291.600 31.008,291.600 30.792 C 291.600 30.577,291.330 30.400,291.000 30.400 C 290.670 30.400,290.400 30.240,290.400 30.045 C 290.400 29.849,289.770 29.571,289.000 29.426 C 288.230 29.282,287.600 28.992,287.600 28.782 C 287.600 28.572,287.330 28.400,287.000 28.400 C 286.670 28.400,286.400 28.240,286.400 28.045 C 286.400 27.849,285.770 27.571,285.000 27.426 C 284.230 27.282,283.600 26.992,283.600 26.782 C 283.600 26.572,283.330 26.400,283.000 26.400 C 282.670 26.400,282.400 26.240,282.400 26.045 C 282.400 25.850,281.590 25.569,280.600 25.421 C 279.610 25.272,278.800 24.982,278.800 24.775 C 278.800 24.569,278.530 24.400,278.200 24.400 C 277.870 24.400,277.600 24.222,277.600 24.005 C 277.600 23.787,276.880 23.494,276.000 23.354 C 275.120 23.213,274.400 22.941,274.400 22.749 C 274.400 22.557,274.040 22.400,273.600 22.400 C 273.160 22.400,272.800 22.243,272.800 22.051 C 272.800 21.859,272.080 21.587,271.200 21.446 C 270.320 21.306,269.600 21.013,269.600 20.795 C 269.600 20.578,269.150 20.400,268.600 20.400 C 268.050 20.400,267.600 20.220,267.600 20.000 C 267.600 19.780,267.222 19.600,266.760 19.600 C 265.984 19.600,264.021 18.876,262.269 17.944 C 261.868 17.730,260.653 17.450,259.569 17.322 C 258.486 17.194,257.600 16.934,257.600 16.744 C 257.600 16.555,257.150 16.400,256.600 16.400 C 256.050 16.400,255.600 16.229,255.600 16.020 C 255.600 15.811,254.520 15.518,253.200 15.368 C 251.880 15.219,250.800 14.940,250.800 14.748 C 250.800 14.557,250.260 14.400,249.600 14.400 C 248.940 14.400,248.400 14.238,248.400 14.041 C 248.400 13.843,247.140 13.555,245.600 13.400 C 244.060 13.245,242.800 12.957,242.800 12.759 C 242.800 12.562,242.080 12.400,241.200 12.400 C 240.320 12.400,239.600 12.236,239.600 12.036 C 239.600 11.836,238.070 11.544,236.200 11.389 C 234.330 11.233,232.800 10.947,232.800 10.753 C 232.800 10.559,231.825 10.400,230.633 10.400 C 229.442 10.400,228.407 10.229,228.333 10.020 C 228.260 9.812,225.635 9.515,222.500 9.361 C 219.365 9.207,216.800 8.928,216.800 8.740 C 216.800 8.553,209.330 8.400,200.200 8.400 C 191.070 8.400,183.600 8.554,183.600 8.742 M202.832 37.300 C 203.992 39.115,206.044 42.310,207.391 44.400 C 208.738 46.490,213.791 54.454,218.620 62.099 C 223.449 69.743,231.479 82.433,236.465 90.299 C 241.451 98.164,248.370 109.100,251.840 114.600 C 255.310 120.100,260.336 128.020,263.010 132.200 C 265.683 136.380,270.363 143.760,273.408 148.600 C 276.454 153.440,280.225 159.380,281.789 161.800 C 287.352 170.408,295.303 183.230,295.153 183.351 C 295.069 183.419,290.500 181.463,285.000 179.006 C 279.500 176.548,270.860 172.688,265.800 170.429 C 260.740 168.169,255.814 165.965,254.854 165.529 C 253.894 165.094,248.134 162.523,242.054 159.815 C 231.808 155.251,207.215 144.269,202.589 142.192 L 200.579 141.289 194.389 143.886 C 190.985 145.314,181.900 149.146,174.200 152.401 C 161.133 157.925,155.194 160.428,125.600 172.878 C 119.330 175.516,111.703 178.745,108.650 180.054 C 105.598 181.363,103.007 182.341,102.893 182.226 C 102.779 182.112,104.038 179.990,105.691 177.509 C 107.344 175.029,110.940 169.580,113.682 165.400 C 116.424 161.220,121.148 154.020,124.180 149.400 C 127.212 144.780,130.976 139.037,132.546 136.637 C 134.116 134.238,138.460 127.625,142.200 121.942 C 145.940 116.259,152.600 106.116,157.000 99.401 C 161.400 92.686,167.340 83.633,170.200 79.284 C 173.060 74.934,177.584 68.051,180.253 63.988 C 196.806 38.789,200.016 34.000,200.350 34.000 C 200.555 34.000,201.672 35.485,202.832 37.300 M205.042 163.346 C 207.219 164.307,218.990 169.548,231.200 174.994 C 243.410 180.440,256.820 186.417,261.000 188.278 C 265.180 190.138,269.140 191.913,269.800 192.220 C 270.460 192.528,277.444 195.644,285.320 199.145 C 293.196 202.645,299.659 205.664,299.681 205.854 C 299.703 206.044,297.129 207.653,293.961 209.429 C 290.792 211.205,281.270 216.536,272.800 221.275 C 264.330 226.014,256.680 230.301,255.800 230.801 C 254.920 231.301,249.610 234.271,244.000 237.400 C 238.390 240.529,233.080 243.498,232.200 243.997 C 229.083 245.765,203.385 260.135,202.400 260.661 C 200.877 261.474,200.979 261.515,191.907 256.454 C 187.228 253.843,182.590 251.258,181.600 250.708 C 180.610 250.158,176.470 247.856,172.400 245.593 C 168.330 243.329,164.010 240.935,162.800 240.272 C 161.590 239.609,157.630 237.410,154.000 235.386 C 150.370 233.362,146.590 231.256,145.600 230.707 C 144.088 229.868,138.781 226.919,127.400 220.594 C 126.300 219.983,124.050 218.725,122.400 217.800 C 120.750 216.875,118.590 215.671,117.600 215.125 C 116.610 214.578,114.720 213.530,113.400 212.796 C 107.573 209.554,105.996 208.684,102.704 206.897 C 98.430 204.578,98.373 204.750,104.215 202.316 C 106.847 201.220,114.220 198.108,120.600 195.401 C 126.980 192.694,135.530 189.095,139.600 187.402 C 143.670 185.709,152.220 182.109,158.600 179.403 C 164.980 176.697,175.600 172.224,182.200 169.464 C 188.800 166.703,195.640 163.810,197.400 163.033 C 201.297 161.314,200.347 161.275,205.042 163.346 M106.944 231.132 C 108.735 232.195,113.260 234.835,117.000 236.998 C 120.740 239.161,126.950 242.762,130.800 245.001 C 134.650 247.240,140.860 250.840,144.600 253.002 C 153.241 257.996,160.280 262.071,163.600 264.000 C 165.030 264.831,168.990 267.131,172.400 269.111 C 175.810 271.091,183.161 275.363,188.737 278.604 C 194.312 281.845,199.360 284.681,199.954 284.905 C 200.929 285.273,201.766 284.897,208.418 281.102 C 212.478 278.786,216.520 276.489,217.400 275.997 C 218.938 275.138,221.747 273.542,243.800 260.999 C 257.649 253.122,268.736 246.824,270.400 245.890 C 271.170 245.457,275.040 243.255,279.000 240.997 C 282.960 238.738,287.100 236.389,288.200 235.778 C 289.300 235.166,292.341 233.432,294.958 231.924 C 297.575 230.416,299.792 229.258,299.884 229.351 C 300.031 229.498,282.615 253.955,263.532 280.400 C 260.119 285.130,253.004 295.030,247.721 302.400 C 205.383 361.465,201.828 366.381,201.529 366.286 C 201.289 366.210,197.448 360.906,178.829 334.945 C 176.283 331.394,168.273 320.234,161.029 310.145 C 153.785 300.055,138.589 278.840,127.260 263.000 C 115.931 247.160,105.883 233.179,104.931 231.930 C 102.329 228.518,102.455 228.468,106.944 231.132 " stroke="none" fill="#141414" fill-rule="evenodd"></path></g></svg>